<?xml version="1.0" encoding="utf-8"?>
<!-- Generator: Adobe Illustrator 24.0.2, SVG Export Plug-In . SVG Version: 6.00 Build 0)  -->
<svg version="1.1" id="Layer_1" xmlns="http://www.w3.org/2000/svg" xmlns:xlink="http://www.w3.org/1999/xlink" x="0px" y="0px"
	 viewBox="0 0 150 150" style="enable-background:new 0 0 150 150;" xml:space="preserve">
<style type="text/css">
	.st0{fill:#8D9297;}
	
		.st1{fill:none;stroke:#8D9297;stroke-width:2.3;stroke-linecap:round;stroke-linejoin:round;stroke-miterlimit:10;stroke-dasharray:0,4;}
	.st2{fill:none;stroke:#35393F;stroke-width:2;stroke-linecap:round;stroke-linejoin:round;stroke-miterlimit:10;}
	.st3{fill:#35393F;}
</style>
<g>
	<path class="st0" d="M127.5,55.4H98.3c-0.6,0-1,0.4-1,1l0.4,1.1c1.4,0.9,2.7,2,4,3.2c4,4,6.3,9,6.9,14.2l18.9,0.1c0.6,0,1-0.4,1-1
		V56.4C128.5,55.9,128,55.4,127.5,55.4z M123,68.5c0,0.6-0.4,1-1,1h-6.6c-0.5,0-1-0.4-1-1v-6.6c0-0.5,0.5-1,1-1h6.6c0.6,0,1,0.5,1,1
		V68.5z"/>
	<path class="st0" d="M119.4,81.1l-11.1,0.1c-0.3,2.5-1.1,4.9-2.2,7.2c0.9-1.7,2.3-3,4.3-3c3,0,5.4,2.4,5.4,5.4c0,3-2.4,5.4-5.4,5.4
		c-3,0-5.4-2.4-5.4-5.4c0-0.7,0.5-1.1,0.8-1.8c-1.1,2.1-2.5,4.1-4.3,5.9c-1.2,1.2-2.5,2.3-3.9,3.2l-0.3,1.5c0,0.6,0.4,1,1,1h6
		l-0.8-0.8l-0.1-1.5l-2.3-2.3l1.4-1.4l2.3,2.3l1.5,0.1l3.6,3.6h9.4c0.5,0,1-0.4,1-1V82.1C120.4,81.5,119.9,81.1,119.4,81.1z"/>
	<path class="st1" d="M97.3,52.1l0-6l0,0c0-5.3-3.5-10.6-10.5-14.6c-13.9-8.1-36.5-8.1-50.4-0.1C29.5,35.4,26,40.7,26,46l0,0l0,46.4
		h0l0,10.7c0,5.5,3.2,11.2,10.5,15.4c13.9,8.1,36.5,8.1,50.4,0.1c7.3-4.2,10.4-9.6,10.4-15.4"/>
	<path class="st0" d="M35.8,61.7l15.1,0c0.6,0,1-0.4,1-1l0-15.1c0-0.6-0.4-1-1-1l-15.1,0c-0.6,0-1,0.4-1,1l0,15.1
		C34.8,61.3,35.3,61.7,35.8,61.7z"/>
	<path class="st0" d="M61.9,112.8l-8.4-14.6c-0.4-0.7-1.3-0.7-1.7,0l-8.4,14.6c-0.4,0.7,0.1,1.5,0.9,1.5H61
		C61.8,114.3,62.2,113.5,61.9,112.8z"/>
	<circle class="st0" cx="68.2" cy="41.3" r="9.8"/>
	<circle class="st0" cx="45" cy="83" r="9.8"/>
	<g>
		<g>
			<polygon class="st2" points="103.5,99.9 127.3,123.6 130.2,120.8 106.4,97 104.9,96.9 102.6,94.6 101.1,96 103.4,98.3 			"/>
			<g>
				<g>
					<path class="st3" d="M84.4,54.3c6,0,12.1,2.3,16.7,6.9c9.2,9.2,9.2,24.2,0,33.4c-4.6,4.6-10.7,6.9-16.7,6.9
						c-6,0-12.1-2.3-16.7-6.9c-9.2-9.2-9.2-24.2,0-33.4C72.3,56.6,78.4,54.3,84.4,54.3 M84.4,52.3c-6.8,0-13.3,2.7-18.1,7.5
						c-10,10-10,26.2,0,36.2c4.8,4.8,11.3,7.5,18.1,7.5c6.8,0,13.3-2.7,18.1-7.5c4.8-4.8,7.5-11.3,7.5-18.1c0-6.8-2.7-13.3-7.5-18.1
						C97.7,55,91.3,52.3,84.4,52.3L84.4,52.3z"/>
				</g>
			</g>
		</g>
		<path class="st3" d="M88.6,56.3c0,5.4-4.4,9.8-9.8,9.8c-4.6,0-8.4-3.1-9.5-7.3c5.5-4.4,12.4-6,19-5C88.5,54.6,88.6,55.4,88.6,56.3
			z"/>
		<path class="st3" d="M75.1,100.4c-2.9-1.2-5.6-2.9-7.9-5.3c-2.7-2.7-4.6-5.8-5.8-9.2l12.7,0c0.6,0,1,0.5,1,1L75.1,100.4z"/>
		<path class="st3" d="M105.7,88.4H88.9c-0.8,0-1.3-0.8-0.9-1.5l8.4-14.6c0.4-0.7,1.4-0.7,1.7,0l8.4,14.6
			C106.9,87.6,106.5,88.4,105.7,88.4z"/>
	</g>
</g>
</svg>
