<svg xmlns="http://www.w3.org/2000/svg" viewBox="0 0 150 150"><title>ml-lai-gray- wh-bg</title><g id="dd51d8c0-59bf-41ab-b560-4e2e9c4ee35f" data-name="Layer 1"><path d="M65,92.4v10.7c0,5.5,3.2,11.2,10.5,15.4,13.9,8.1,36.5,8.1,50.4.1,7.3-4.2,10.4-9.6,10.4-15.4V46.1h0c0-5.3-3.5-10.6-10.5-14.6-13.9-8.1-36.5-8.1-50.4-.1-6.9,4-10.4,9.3-10.4,14.6h0V68.4" fill="none" stroke="#35393f" stroke-linecap="round" stroke-linejoin="round" stroke-width="2.5" stroke-dasharray="0 4"/><line x1="17" y1="59.3" x2="32.3" y2="59.3" fill="none" stroke="#8d9297" stroke-linecap="round" stroke-linejoin="round" stroke-width="2.3" stroke-dasharray="0 4"/><line x1="15.7" y1="97.3" x2="30.9" y2="97.3" fill="none" stroke="#8d9297" stroke-linecap="round" stroke-linejoin="round" stroke-width="2.3" stroke-dasharray="0 4"/><line x1="13.6" y1="78.7" x2="51.2" y2="78.8" fill="none" stroke="#8d9297" stroke-linecap="round" stroke-linejoin="round" stroke-width="2.3" stroke-dasharray="0 4"/><line x1="81.8" y1="83.3" x2="111.7" y2="83.3" fill="none" stroke="#35393f" stroke-linecap="round" stroke-linejoin="round" stroke-width="2.5" stroke-dasharray="0 4"/><line x1="76.3" y1="64.9" x2="90.5" y2="64.9" fill="none" stroke="#35393f" stroke-linecap="round" stroke-linejoin="round" stroke-width="2.5" stroke-dasharray="0 4"/><rect x="33.1" y="50.7" width="17.1" height="17.14" transform="translate(0.1 -0.1) rotate(0.1)" fill="none" stroke="#8d9297" stroke-linecap="round" stroke-linejoin="round" stroke-width="2"/><path d="M94,107.2H79.3c-1.7,0-2.3-.5-2.3-1.2V91.1a1,1,0,0,1,1-1H93.2a1,1,0,0,1,1,1v14.9C94.1,106.7,93.6,107.2,94,107.2Z" fill="#35393f"/><rect x="105.3" y="41.6" width="17.1" height="17.14" rx="1" ry="1" transform="translate(0.1 -0.2) rotate(0.1)" fill="#35393f"/><circle cx="63.4" cy="78.8" r="9.8" transform="translate(-15.5 142) rotate(-89.9)" fill="none" stroke="#8d9297" stroke-linecap="round" stroke-linejoin="round" stroke-width="2"/><circle cx="41.6" cy="97.3" r="9.8" transform="translate(-55.8 138.7) rotate(-89.9)" fill="none" stroke="#8d9297" stroke-linecap="round" stroke-linejoin="round" stroke-width="2"/><path d="M88.8,71.8l8.4-14.6a1,1,0,0,1,1.7,0l8.4,14.6a1,1,0,0,1-.9,1.5H89.7A1,1,0,0,1,88.8,71.8Z" fill="#35393f"/><path d="M99.1,110.9l8.4-14.6a1,1,0,0,1,1.7,0l8.4,14.6a1,1,0,0,1-.9,1.5H100A1,1,0,0,1,99.1,110.9Z" fill="#35393f"/><circle cx="85" cy="47.5" r="9.8" transform="translate(37.4 132.4) rotate(-89.9)" fill="#35393f"/><circle cx="118.5" cy="83.3" r="9.8" transform="translate(34.9 201.6) rotate(-89.9)" fill="#35393f"/></g></svg>