<?xml version="1.0" encoding="utf-8"?>
<!-- Generator: Adobe Illustrator 24.0.2, SVG Export Plug-In . SVG Version: 6.00 Build 0)  -->
<svg version="1.1" id="Layer_1" xmlns="http://www.w3.org/2000/svg" xmlns:xlink="http://www.w3.org/1999/xlink" x="0px" y="0px"
	 viewBox="0 0 150 150" style="enable-background:new 0 0 150 150;" xml:space="preserve">
<style type="text/css">
	.st0{fill:none;stroke:#8D9297;stroke-width:2;stroke-linejoin:round;stroke-miterlimit:10;}
	.st1{fill:none;stroke:#8D9297;stroke-width:2.5;stroke-linecap:round;stroke-linejoin:round;}
	.st2{fill:none;stroke:#8D9297;stroke-width:2.5;stroke-linecap:round;stroke-linejoin:round;stroke-dasharray:0,4.1025;}
	.st3{fill:none;stroke:#8D9297;stroke-width:2.5;stroke-linecap:round;stroke-linejoin:round;stroke-dasharray:0,4.0996;}
	.st4{fill:none;stroke:#8D9297;stroke-width:2.5;stroke-linecap:round;stroke-linejoin:round;stroke-dasharray:0,4.1006;}
	.st5{fill:#8D9297;}
	.st6{fill:#35393F;}
</style>
<g>
	<g>
		<g>
			<line class="st0" x1="59.9" y1="71.3" x2="66" y2="81.7"/>
			<line class="st0" x1="84.2" y1="81.9" x2="90.3" y2="71.1"/>
			<g>
				<g>
					<line class="st1" x1="75" y1="122" x2="75" y2="122"/>
					<line class="st2" x1="75" y1="126.1" x2="75" y2="128.2"/>
					<line class="st1" x1="75" y1="130.2" x2="75" y2="130.2"/>
				</g>
			</g>
		</g>
		<g>
			<g>
				<g>
					<line class="st1" x1="120.3" y1="43.2" x2="120.3" y2="43.2"/>
					<line class="st3" x1="123.8" y1="41.1" x2="125.6" y2="40.1"/>
					<line class="st1" x1="127.4" y1="39.1" x2="127.4" y2="39.1"/>
				</g>
			</g>
		</g>
		<g>
			<line class="st0" x1="68.7" y1="55.6" x2="81.3" y2="55.5"/>
			<g>
				<g>
					<line class="st1" x1="29.4" y1="43.6" x2="29.4" y2="43.6"/>
					<line class="st4" x1="25.9" y1="41.6" x2="24.1" y2="40.6"/>
					<line class="st1" x1="22.3" y1="39.6" x2="22.3" y2="39.6"/>
				</g>
			</g>
		</g>
		<g>
			<g>
				<path class="st5" d="M99.2,35.9l17.1,9.9v19.7l-17.1,9.9l-17.1-9.9V45.8L99.2,35.9 M99.2,33.6l-19.1,11v22l19.1,11l19.1-11v-22
					L99.2,33.6L99.2,33.6z"/>
			</g>
			<path class="st6" d="M108.8,45H89.6c-0.6,0-1,0.4-1,1v19.2c0,0.6,0.4,1,1,1h19.2c0.6,0,1-0.4,1-1V46
				C109.8,45.4,109.4,45,108.8,45z M95,58.9v-6.5c0-0.6,0.4-1,1-1h6.5c0.6,0,1,0.4,1,1v6.5c0,0.6-0.4,1-1,1H96
				C95.4,59.9,95,59.4,95,58.9z"/>
		</g>
		<g>
			<g>
				<path class="st5" d="M50.8,35.9l17.1,9.9v19.7l-17.1,9.9l-17.1-9.9V45.8L50.8,35.9 M50.8,33.6l-19.1,11v22l19.1,11l19.1-11v-22
					L50.8,33.6L50.8,33.6z"/>
			</g>
			<path class="st6" d="M63.1,61.7L51.7,41.9c-0.4-0.7-1.3-0.7-1.7,0L38.5,61.7c-0.4,0.7,0.1,1.5,0.9,1.5l22.8,0
				C63,63.2,63.4,62.3,63.1,61.7z M53.6,58.2h-5.7c-0.8,0-1.3-0.8-0.9-1.5l2.8-4.9c0.4-0.7,1.3-0.7,1.7,0l2.8,4.9
				C54.9,57.4,54.4,58.2,53.6,58.2z"/>
		</g>
		<g>
			<g>
				<path class="st5" d="M75,77.8l17.1,9.9v19.7L75,117.2l-17.1-9.9V87.7L75,77.8 M75,75.5l-19.1,11v22l19.1,11l19.1-11v-22L75,75.5
					L75,75.5z"/>
			</g>
			<path class="st6" d="M81.1,108.1c5.8-3.4,7.8-10.8,4.5-16.6c-3.4-5.8-10.8-7.8-16.6-4.5s-7.8,10.8-4.5,16.6
				C67.8,109.4,75.2,111.4,81.1,108.1z M77.4,101.7c-2.3,1.3-5.3,0.5-6.6-1.8s-0.5-5.3,1.8-6.6s5.3-0.5,6.6,1.8
				S79.7,100.4,77.4,101.7z"/>
		</g>
	</g>
</g>
</svg>
