<svg width="24" height="24" viewBox="0 0 24 24" fill="none" xmlns="http://www.w3.org/2000/svg">
<path d="M23.0156 15.875C22.9062 15.3906 22.6406 15.0156 22.2188 14.75C21.7969 14.4844 21.3438 14.4062 20.8594 14.5156C20.7031 14.5625 20.5625 14.625 20.4375 14.7031C20.3281 14.7656 20.2188 14.8281 20.1094 14.8906L17.7656 13.5547C17.8125 13.4453 17.8359 13.3281 17.8359 13.2031C17.8359 13.0781 17.8125 12.9453 17.7656 12.8047C17.6562 12.3203 17.3984 11.9453 16.9922 11.6797C16.6016 11.4141 16.1641 11.3359 15.6797 11.4453L13.3594 7.25C13.5469 7.03125 13.6719 6.78906 13.7344 6.52344C13.8125 6.25781 13.8359 5.97656 13.8047 5.67969C13.6953 5.19531 13.4219 4.82031 12.9844 4.55469C12.5625 4.28906 12.1094 4.21094 11.625 4.32031C11.1406 4.42969 10.7656 4.70313 10.5 5.14062C10.2344 5.5625 10.1562 6.01563 10.2656 6.5C10.3125 6.65625 10.3672 6.79687 10.4297 6.92188C10.5078 7.03125 10.5781 7.14063 10.6406 7.25L8.25 11.4453C7.76562 11.3672 7.32031 11.4609 6.91406 11.7266C6.52344 11.9922 6.26562 12.3516 6.14062 12.8047C6.10938 12.9141 6.09375 13.0391 6.09375 13.1797C6.09375 13.3203 6.10938 13.4453 6.14062 13.5547L3.82031 14.8906C3.71094 14.8281 3.59375 14.7656 3.46875 14.7031C3.35938 14.625 3.22656 14.5625 3.07031 14.5156C2.58594 14.4062 2.13281 14.4844 1.71094 14.75C1.28906 15.0156 1.01562 15.3906 0.890625 15.875C0.78125 16.3594 0.859375 16.8203 1.125 17.2578C1.39062 17.6797 1.76562 17.9453 2.25 18.0547C2.73438 18.1641 3.1875 18.0859 3.60938 17.8203C4.04688 17.5547 4.32031 17.1797 4.42969 16.6953C4.46094 16.5859 4.47656 16.4609 4.47656 16.3203C4.47656 16.1797 4.46094 16.0547 4.42969 15.9453L6.67969 14.6094C6.75781 14.6719 6.84375 14.7266 6.9375 14.7734C7.03125 14.8203 7.11719 14.8594 7.19531 14.8906V17.6094C6.97656 17.6719 6.76562 17.8281 6.5625 18.0781C6.35938 18.3125 6.21875 18.5781 6.14062 18.875C6.03125 19.3594 6.10938 19.8203 6.375 20.2578C6.64062 20.6797 7.01562 20.9453 7.5 21.0547C7.98438 21.1641 8.4375 21.0859 8.85938 20.8203C9.29688 20.5547 9.57031 20.1797 9.67969 19.6953C9.78906 19.2422 9.72656 18.8203 9.49219 18.4297C9.27344 18.0234 8.96094 17.75 8.55469 17.6094V14.8906C8.85156 14.7812 9.10156 14.6172 9.30469 14.3984C9.50781 14.1797 9.63281 13.9219 9.67969 13.625C9.75781 13.3281 9.75 13.0469 9.65625 12.7812C9.5625 12.5156 9.44531 12.2734 9.30469 12.0547L11.6953 7.76562C11.8047 7.8125 11.9141 7.83594 12.0234 7.83594C12.1328 7.83594 12.2266 7.8125 12.3047 7.76562L14.6953 12.0547C14.5078 12.2734 14.375 12.5156 14.2969 12.7812C14.2344 13.0469 14.2422 13.3281 14.3203 13.625C14.3984 13.9219 14.5391 14.1953 14.7422 14.4453C14.9453 14.6797 15.1797 14.8281 15.4453 14.8906V17.6094C15.0391 17.75 14.7188 18.0234 14.4844 18.4297C14.2656 18.8203 14.2109 19.2422 14.3203 19.6953C14.4297 20.1797 14.6953 20.5547 15.1172 20.8203C15.5547 21.0859 16.0156 21.1641 16.5 21.0547C16.9844 20.9453 17.3594 20.6797 17.625 20.2578C17.8906 19.8203 17.9688 19.3594 17.8594 18.875C17.7812 18.5781 17.6328 18.3125 17.4141 18.0781C17.2109 17.8281 16.9844 17.6719 16.7344 17.6094V14.8906C16.8438 14.8594 16.9375 14.8203 17.0156 14.7734C17.0938 14.7266 17.1719 14.6719 17.25 14.6094L19.5 15.9453C19.4688 16.0547 19.4531 16.1797 19.4531 16.3203C19.4531 16.4609 19.4688 16.5859 19.5 16.6953C19.6094 17.1797 19.875 17.5547 20.2969 17.8203C20.7344 18.0859 21.1953 18.1641 21.6797 18.0547C22.1641 17.9453 22.5391 17.6797 22.8047 17.2578C23.0703 16.8203 23.1406 16.3594 23.0156 15.875Z"/>
</svg>
