<?xml version="1.0" encoding="utf-8"?>
<!-- Generator: Adobe Illustrator 18.1.1, SVG Export Plug-In . SVG Version: 6.00 Build 0)  -->
<svg version="1.1" id="Layer_2" xmlns="http://www.w3.org/2000/svg" xmlns:xlink="http://www.w3.org/1999/xlink" x="0px" y="0px"
	 viewBox="0 0 158.8 38.2" enable-background="new 0 0 158.8 38.2" xml:space="preserve">
<g>
	<path fill="#FFFFFF" d="M47.1,28.3h-8.3v-1.1c0.7,0,1.2-0.1,1.6-0.2c0.3-0.1,0.6-0.4,0.7-0.6c0.1-0.3,0.2-0.6,0.2-1.1V14.8
		l-6.2,13.4h-0.7l-6.3-13.4v9.8c0,0.5,0,0.9,0.1,1.2c0,0.3,0.1,0.5,0.3,0.7c0.2,0.2,0.4,0.3,0.7,0.4c0.3,0.1,0.8,0.1,1.4,0.1v1.1
		h-6.1v-1.1c0.6,0,1,0,1.4-0.1c0.3-0.1,0.6-0.2,0.7-0.4c0.1-0.2,0.2-0.4,0.3-0.7c0-0.3,0-0.7,0-1.2v-9.4c0-0.7,0-1.2-0.1-1.5
		c-0.1-0.3-0.3-0.5-0.6-0.7c-0.3-0.2-0.9-0.2-1.7-0.2v-1.1h6.1l5.5,11.7l5.5-11.7h5.9v1.1c-1,0-1.7,0.1-2,0.4
		c-0.3,0.3-0.4,0.8-0.4,1.5v10.4c0,0.4,0,0.8,0.1,1.1c0.1,0.3,0.3,0.5,0.7,0.6c0.4,0.1,0.9,0.2,1.6,0.2V28.3z"/>
	<path fill="#FFFFFF" d="M60.8,25.7c0,0.6-0.1,1.1-0.4,1.6c-0.3,0.4-0.6,0.8-1,1c-0.4,0.2-0.9,0.3-1.4,0.3c-0.7,0-1.3-0.2-1.7-0.5
		c-0.5-0.3-0.7-0.7-0.8-1.2c-1.4,1.1-2.7,1.6-4.1,1.6c-0.9,0-1.6-0.2-2.2-0.6c-0.6-0.4-0.8-1-0.8-1.7c0-0.6,0.1-1.1,0.5-1.6
		c0.3-0.5,0.7-0.9,1.3-1.3c0.6-0.4,1.3-0.7,2.1-1c0.8-0.3,1.8-0.6,3-0.9v-0.7c0-0.6-0.1-1-0.4-1.4c-0.3-0.3-0.8-0.5-1.5-0.5
		c-0.6,0-1.1,0.1-1.4,0.4c-0.3,0.3-0.5,0.7-0.5,1.2c-0.1,0.4-0.2,0.7-0.4,0.9c-0.2,0.2-0.5,0.4-1.1,0.4c-0.3,0-0.6-0.1-0.9-0.3
		c-0.3-0.2-0.4-0.5-0.4-0.9c0-0.8,0.4-1.4,1.2-2c0.8-0.6,2.1-0.8,3.8-0.8c1.8,0,3,0.3,3.7,0.9c0.7,0.6,1,1.4,1,2.4V25
		c0,0.5,0,0.8,0,1.1c0,0.2,0.1,0.4,0.2,0.5c0.1,0.1,0.3,0.2,0.5,0.2c0.2,0,0.4-0.1,0.6-0.3c0.2-0.2,0.2-0.5,0.2-0.8H60.8z
		 M55.2,25.8v-3c-1.5,0.5-2.5,1-2.9,1.4c-0.4,0.5-0.6,0.9-0.6,1.4c0,0.4,0.1,0.7,0.3,0.9c0.2,0.2,0.5,0.3,1,0.3
		c0.4,0,0.8-0.1,1.2-0.3C54.5,26.3,54.9,26.1,55.2,25.8z"/>
	<path fill="#FFFFFF" d="M72.3,19.8c0,0.5-0.1,0.8-0.4,1.1c-0.3,0.3-0.6,0.4-1,0.4c-0.5,0-0.9-0.2-1.2-0.7c-0.2-0.2-0.3-0.3-0.4-0.4
		c-0.1-0.1-0.3-0.1-0.5-0.1c-0.6,0-1.1,0.3-1.5,1c-0.4,0.7-0.5,1.4-0.5,2.1v2.1c0,0.7,0.1,1.2,0.3,1.4c0.2,0.3,0.6,0.4,1.4,0.4h0.6
		v1.1h-7.6v-1.1h0.6c0.7,0,1.1-0.1,1.3-0.4c0.2-0.3,0.2-0.7,0.2-1.4v-3.6c0-0.5-0.1-0.9-0.2-1.2c-0.1-0.2-0.3-0.4-0.6-0.5
		c-0.3-0.1-0.7-0.1-1.4-0.1v-1.1l4.8-1c0.1,0.4,0.2,1.3,0.3,2.6c0.2-0.5,0.5-0.9,0.9-1.3c0.4-0.4,0.8-0.7,1.2-1
		c0.5-0.2,0.9-0.4,1.4-0.4c0.7,0,1.2,0.2,1.6,0.6C72.1,18.8,72.3,19.3,72.3,19.8z"/>
	<path fill="#FFFFFF" d="M86.2,28.3h-6.1v-1.1c0.7,0,1.1-0.1,1.1-0.4c0-0.2-0.1-0.4-0.3-0.6l-2.2-2.9L77.4,24v1.5
		c0,0.5,0,0.8,0.1,1.1c0.1,0.2,0.2,0.4,0.4,0.4c0.2,0.1,0.5,0.1,0.8,0.1v1.1h-6.3v-1.1c0.5,0,0.8,0,1.1-0.1c0.3-0.1,0.4-0.3,0.5-0.5
		c0.1-0.2,0.1-0.6,0.1-1.1V15c0-0.4-0.1-0.7-0.2-0.9c-0.1-0.2-0.3-0.3-0.5-0.4c-0.2-0.1-0.6-0.1-1.1-0.1v-1.1l4.9-1.1v11.2l3.4-2.3
		c0.2-0.2,0.4-0.3,0.4-0.4c0.1-0.1,0.1-0.1,0.1-0.2c0-0.2-0.2-0.3-0.6-0.3h-0.7v-1.1h5.2v1.1c-0.8,0.1-1.8,0.5-2.8,1.1l-1.2,0.9
		l3.3,4.4c0.3,0.4,0.6,0.8,0.9,1c0.2,0.2,0.5,0.3,0.8,0.3V28.3z"/>
	<path fill="#FFFFFF" d="M115.5,23.2c0,1.1-0.3,2.1-0.8,2.9c-0.5,0.8-1.3,1.5-2.2,1.9c-0.9,0.4-1.9,0.7-3,0.7c-1,0-2-0.2-2.9-0.6
		c-0.9-0.4-1.7-1-2.2-1.8c-0.6-0.8-0.9-1.8-0.9-3c0-1.8,0.6-3.1,1.8-4c1.2-0.9,2.6-1.4,4.3-1.4c1.2,0,2.3,0.2,3.2,0.7
		c0.9,0.5,1.6,1.1,2,2C115.3,21.4,115.5,22.3,115.5,23.2z M112.2,23.2c0-1.4-0.2-2.4-0.5-3.1c-0.4-0.7-1.1-1-2.1-1
		c-0.7,0-1.2,0.2-1.6,0.5c-0.4,0.3-0.6,0.8-0.8,1.4c-0.2,0.6-0.2,1.5-0.2,2.5c0,1.3,0.2,2.3,0.5,3c0.3,0.8,1.1,1.2,2.2,1.2
		c0.7,0,1.3-0.2,1.7-0.6c0.4-0.4,0.6-1,0.7-1.6C112.1,24.7,112.2,24,112.2,23.2z"/>
	<path fill="#FFFFFF" d="M129.3,18.9c0,0.3-0.1,0.5-0.2,0.7c-0.2,0.2-0.3,0.3-0.5,0.3c-0.3,0-0.5-0.1-0.8-0.3c0,0-0.1-0.1-0.2-0.2
		c-0.1-0.1-0.2-0.1-0.2-0.2c-0.1,0-0.1-0.1-0.2-0.1c-0.2,0-0.4,0.1-0.6,0.2c0.3,0.3,0.5,0.7,0.6,1c0.1,0.3,0.2,0.7,0.2,1.2
		c0,0.7-0.1,1.2-0.4,1.6c-0.3,0.4-0.7,0.8-1.2,1c-0.5,0.2-1,0.4-1.5,0.5c-0.5,0.1-1.1,0.2-1.9,0.3c-1.9,0.2-2.9,0.6-2.9,1.2
		c0,0.2,0.1,0.4,0.4,0.5c0.3,0.1,0.7,0.1,1.3,0.1h1.9c0.6,0,1.2,0,1.7,0.1c0.5,0.1,1.1,0.2,1.7,0.4c0.6,0.2,1,0.6,1.4,1.1
		c0.4,0.5,0.6,1.1,0.6,1.9c0,0.6-0.2,1.2-0.5,1.8c-0.4,0.6-1,1.1-1.9,1.5c-0.9,0.4-2.2,0.6-3.7,0.6c-1.2,0-2.4-0.2-3.7-0.5
		c-1.2-0.3-1.8-1.1-1.8-2.2c0-0.4,0.1-0.7,0.3-1.1c0.2-0.3,0.6-0.5,1.1-0.5c0.4,0,0.7,0.1,0.9,0.2c-0.2,0.3-0.3,0.6-0.3,0.9
		c0,0.5,0.3,1,0.9,1.4c0.6,0.4,1.6,0.6,2.8,0.6c1.3,0,2.3-0.2,3-0.5c0.7-0.4,1.1-0.8,1.1-1.4c0-0.4-0.2-0.7-0.5-1
		c-0.3-0.2-0.8-0.3-1.3-0.4c-0.6-0.1-1.5-0.1-2.7-0.1c-1.5,0-2.7-0.2-3.5-0.5c-0.9-0.3-1.3-1-1.3-2c0-0.8,0.3-1.5,1-1.8
		c0.6-0.4,1.4-0.7,2.3-0.9c-2.2-0.4-3.3-1.4-3.3-3.1c0-0.5,0.1-1.1,0.4-1.6c0.3-0.6,0.8-1,1.6-1.4c0.7-0.4,1.7-0.6,3-0.6
		c1.6,0,2.8,0.4,3.7,1.1c0.5-0.7,1.2-1.1,2-1.1c0.4,0,0.7,0.1,1,0.3C129.2,18.4,129.3,18.7,129.3,18.9z M124.3,21.5
		c0-0.7-0.2-1.3-0.5-1.8c-0.3-0.5-0.8-0.8-1.5-0.8c-0.7,0-1.2,0.2-1.5,0.7c-0.3,0.5-0.4,1-0.4,1.7c0,0.7,0.1,1.3,0.4,1.8
		c0.3,0.6,0.8,0.8,1.5,0.8c0.6,0,1-0.2,1.4-0.7C124.1,22.9,124.3,22.3,124.3,21.5z"/>
	<path fill="#FFFFFF" d="M137.2,28.3h-6.6v-1.1h0.4c0.5,0,0.8-0.1,1-0.2c0.2-0.1,0.3-0.3,0.4-0.5c0-0.2,0.1-0.6,0.1-1v-3.6
		c0-0.5,0-0.9-0.1-1.1c-0.1-0.2-0.2-0.4-0.5-0.5c-0.3-0.1-0.7-0.2-1.3-0.2v-1.1l5-1v7.5c0,0.7,0.1,1.2,0.3,1.4
		c0.2,0.3,0.6,0.4,1.4,0.4V28.3z M135.9,13.1c0,0.5-0.2,0.9-0.5,1.2c-0.3,0.3-0.8,0.5-1.2,0.5c-0.5,0-0.9-0.2-1.3-0.5
		c-0.4-0.4-0.5-0.8-0.5-1.2c0-0.5,0.2-0.9,0.5-1.3c0.3-0.3,0.8-0.5,1.3-0.5c0.5,0,0.9,0.2,1.3,0.5C135.7,12.2,135.9,12.6,135.9,13.1
		z"/>
	<path fill="#FFFFFF" d="M148.8,25.8c-1,1.9-2.6,2.9-4.7,2.9c-1,0-2-0.2-2.9-0.6c-0.9-0.4-1.6-1-2.2-1.8c-0.6-0.8-0.8-1.7-0.8-2.8
		c0-0.7,0.1-1.4,0.4-2.1c0.3-0.7,0.7-1.3,1.3-1.8c0.6-0.5,1.2-1,2-1.3c0.8-0.3,1.6-0.4,2.5-0.4c1.1,0,2.1,0.2,3,0.7
		c0.9,0.4,1.3,1.1,1.3,1.8c0,0.4-0.1,0.7-0.4,0.9c-0.3,0.3-0.6,0.4-0.9,0.4c-0.3,0-0.6-0.1-0.8-0.2c-0.2-0.2-0.3-0.3-0.4-0.5
		c-0.1-0.2-0.1-0.5-0.2-0.9c-0.1-0.4-0.3-0.7-0.5-0.8c-0.2-0.2-0.6-0.3-1-0.3c-0.7,0-1.4,0.3-2,0.8c-0.6,0.5-0.9,1.6-0.9,3.1
		c0,0.8,0.1,1.5,0.3,2.2c0.2,0.7,0.6,1.2,1.1,1.6c0.5,0.4,1.1,0.6,1.8,0.6c0.8,0,1.4-0.2,1.8-0.6c0.4-0.4,0.8-0.9,1.1-1.4
		L148.8,25.8z"/>
	<path fill="#FFFFFF" d="M95.7,26.9c0.9,0,1.7-0.1,2.3-0.2c0.7-0.1,1.4-0.5,2-1.1c0.6-0.6,1-1.6,1.1-2.8h1.1l-0.1,5.5h-6.4h0h-7.9
		v-1.1c1,0,1.7-0.1,2-0.4c0.3-0.3,0.4-0.8,0.4-1.5V14.8c0-0.5,0-0.9-0.1-1.1c-0.1-0.3-0.3-0.5-0.7-0.6c-0.4-0.1-0.9-0.2-1.6-0.2
		v-1.1h8.3v1.1c-0.7,0-1.2,0.1-1.6,0.2c-0.4,0.1-0.6,0.3-0.7,0.6c-0.1,0.3-0.2,0.6-0.2,1.1v9.5c0,0.8,0,1.3,0.1,1.6
		c0.1,0.3,0.3,0.6,0.6,0.7C94.6,26.8,95.1,26.9,95.7,26.9L95.7,26.9z"/>
	<path fill="#FFFFFF" d="M13.6,23.1c0.9,0,1.6-0.7,1.6-1.6c0-0.4,0-7.7,0-8.1c0-0.9-0.7-1.6-1.6-1.6c-0.4,0-7.8,0-8.2,0
		c-0.9,0-1.6,0.7-1.6,1.6c0,0.4,0,7.8,0,8.1c0,0.9,0.7,1.6,1.6,1.6C5.8,23.1,13.2,23.1,13.6,23.1z"/>
	<path fill="#FFFFFF" d="M21,10.6c0.7,0,1.3-0.6,1.3-1.3c0-0.1,0-3.9,0-4c0-0.7-0.6-1.3-1.3-1.3c-0.1,0-3.9,0-4,0
		c-0.7,0-1.3,0.6-1.3,1.3c0,0.1,0,4,0,4c0,0.7,0.6,1.3,1.3,1.3C17.1,10.6,20.9,10.6,21,10.6z"/>
	<path fill="#FFFFFF" d="M150.8,19.5c0-0.2,0-0.4,0.1-0.6c0.1-0.2,0.2-0.4,0.3-0.5c0.1-0.1,0.3-0.3,0.5-0.3c0.2-0.1,0.4-0.1,0.6-0.1
		c0.2,0,0.4,0,0.6,0.1c0.2,0.1,0.4,0.2,0.5,0.3c0.1,0.1,0.3,0.3,0.3,0.5c0.1,0.2,0.1,0.4,0.1,0.6c0,0.2,0,0.4-0.1,0.6
		c-0.1,0.2-0.2,0.4-0.3,0.5c-0.1,0.1-0.3,0.3-0.5,0.3c-0.2,0.1-0.4,0.1-0.6,0.1c-0.2,0-0.4,0-0.6-0.1c-0.2-0.1-0.4-0.2-0.5-0.3
		c-0.1-0.1-0.3-0.3-0.3-0.5C150.9,19.9,150.8,19.7,150.8,19.5z M151.2,19.5c0,0.2,0,0.3,0.1,0.5c0.1,0.2,0.1,0.3,0.3,0.4
		c0.1,0.1,0.2,0.2,0.4,0.3c0.2,0.1,0.3,0.1,0.5,0.1c0.2,0,0.4,0,0.5-0.1c0.2-0.1,0.3-0.2,0.4-0.3c0.1-0.1,0.2-0.3,0.3-0.4
		c0.1-0.2,0.1-0.3,0.1-0.5c0-0.2,0-0.3-0.1-0.5c-0.1-0.2-0.1-0.3-0.3-0.4c-0.1-0.1-0.2-0.2-0.4-0.3c-0.2-0.1-0.3-0.1-0.5-0.1
		c-0.2,0-0.4,0-0.5,0.1c-0.2,0.1-0.3,0.2-0.4,0.3c-0.1,0.1-0.2,0.3-0.3,0.4C151.2,19.1,151.2,19.3,151.2,19.5z M152.6,19.6l0.4,0.7
		h-0.4l-0.4-0.6h-0.2v0.6h-0.3v-1.6h0.6c0.1,0,0.2,0,0.2,0c0.1,0,0.2,0,0.2,0.1c0.1,0,0.1,0.1,0.1,0.2c0,0.1,0.1,0.1,0.1,0.2
		c0,0.1,0,0.2-0.1,0.3C152.9,19.5,152.8,19.6,152.6,19.6L152.6,19.6z M152.1,18.9v0.4h0.2c0.1,0,0.2,0,0.3-0.1
		c0.1,0,0.1-0.1,0.1-0.2c0-0.1,0-0.1-0.1-0.2c0,0-0.1-0.1-0.2-0.1H152.1z"/>
</g>
</svg>
