<svg id="Layer_1" data-name="Layer 1" xmlns="http://www.w3.org/2000/svg" viewBox="0 0 605.92 82.79"><defs><style>.cls-1{fill:#2a2d2b;}.cls-2{fill:none;stroke:#fff;stroke-miterlimit:10;stroke-width:1.68px;}.cls-3{fill:#333;}.cls-4{fill:#fff;}</style></defs><title>logov3</title><g id="_Group_" data-name="&lt;Group&gt;"><circle class="cls-1" cx="41.39" cy="41.4" r="37.39"/><path class="cls-1" d="M341.75,336.39A41.39,41.39,0,1,1,383.14,295,41.44,41.44,0,0,1,341.75,336.39Zm0-74.79A33.39,33.39,0,1,0,375.14,295,33.43,33.43,0,0,0,341.75,261.6Z" transform="translate(-300.35 -253.6)"/></g><path class="cls-2" d="M343.93,295" transform="translate(-300.35 -253.6)"/><path class="cls-3" d="M409.69,265.18a18.54,18.54,0,0,1,8.71,1.76,12.56,12.56,0,0,1,5.15,5,22.42,22.42,0,0,1,2.48,7.88,74.37,74.37,0,0,1,.65,10.3,73.13,73.13,0,0,1-.83,11.77,22.5,22.5,0,0,1-2.84,8.24,12.48,12.48,0,0,1-5.4,4.82,20.23,20.23,0,0,1-8.57,1.58H392.7V265.18h17Zm-2,43.78a8.9,8.9,0,0,0,4.39-.94,6.42,6.42,0,0,0,2.63-3.1,18.11,18.11,0,0,0,1.3-5.69q0.32-3.53.32-8.78,0-4.39-.29-7.7a19,19,0,0,0-1.19-5.51,6.87,6.87,0,0,0-2.66-3.31,8.74,8.74,0,0,0-4.72-1.12h-4.39V309h4.61Z" transform="translate(-300.35 -253.6)"/><path class="cls-3" d="M427.77,288.8a13.12,13.12,0,0,1,1.08-5.65,9.88,9.88,0,0,1,2.92-3.67,11.58,11.58,0,0,1,4.32-2,22.1,22.1,0,0,1,5.29-.61,24.54,24.54,0,0,1,7.2.86,9.84,9.84,0,0,1,4.25,2.45,8.22,8.22,0,0,1,2.05,3.78,20,20,0,0,1,.54,4.79V309.1a27.29,27.29,0,0,0,.25,4.25,14.81,14.81,0,0,0,1,3.24h-9.5a8.16,8.16,0,0,1-.76-2q-0.25-1-.47-2.05h-0.14a8.44,8.44,0,0,1-4,3.92,16.14,16.14,0,0,1-5.87.9,9.75,9.75,0,0,1-4.39-.9,7.43,7.43,0,0,1-2.88-2.48,11.13,11.13,0,0,1-1.58-3.56,15.83,15.83,0,0,1-.5-3.92,17,17,0,0,1,.58-4.72,9.09,9.09,0,0,1,1.76-3.38,9.61,9.61,0,0,1,3-2.34,23.91,23.91,0,0,1,4.43-1.66l5.62-1.51a6,6,0,0,0,3.1-1.58,4.42,4.42,0,0,0,.86-3,5.32,5.32,0,0,0-1-3.49,4.4,4.4,0,0,0-3.56-1.26,4.27,4.27,0,0,0-3.46,1.37,5.52,5.52,0,0,0-1.15,3.67v1.08h-8.93V288.8Zm16,9.68a14,14,0,0,1-2.09.68,7.64,7.64,0,0,0-4.32,2.16,6.1,6.1,0,0,0-1.3,4.1,7.87,7.87,0,0,0,.86,3.82,3,3,0,0,0,2.88,1.58,7.26,7.26,0,0,0,2.09-.32,5.82,5.82,0,0,0,2-1,5.51,5.51,0,0,0,1.48-1.87,6.06,6.06,0,0,0,.58-2.74v-7.63A9,9,0,0,1,443.75,298.48Z" transform="translate(-300.35 -253.6)"/><path class="cls-3" d="M469.16,266.77v11.09h5.76v6.77h-5.76v21a5.89,5.89,0,0,0,.68,3.28q0.68,1,2.84,1,0.58,0,1.15,0t1.08-.11v6.91q-1.66,0-3.2.11t-3.28.11a23.12,23.12,0,0,1-4.72-.4,4.79,4.79,0,0,1-2.81-1.58,6.82,6.82,0,0,1-1.33-3.13,27.52,27.52,0,0,1-.36-4.9V284.62h-5v-6.77h5V266.77h9.94Z" transform="translate(-300.35 -253.6)"/><path class="cls-3" d="M472.91,288.8a13.12,13.12,0,0,1,1.08-5.65,9.88,9.88,0,0,1,2.92-3.67,11.58,11.58,0,0,1,4.32-2,22.1,22.1,0,0,1,5.29-.61,24.54,24.54,0,0,1,7.2.86,9.84,9.84,0,0,1,4.25,2.45,8.22,8.22,0,0,1,2.05,3.78,20,20,0,0,1,.54,4.79V309.1a27.29,27.29,0,0,0,.25,4.25,14.81,14.81,0,0,0,1,3.24h-9.5a8.16,8.16,0,0,1-.76-2q-0.25-1-.47-2.05h-0.14a8.44,8.44,0,0,1-4,3.92,16.14,16.14,0,0,1-5.87.9,9.75,9.75,0,0,1-4.39-.9,7.43,7.43,0,0,1-2.88-2.48,11.13,11.13,0,0,1-1.58-3.56,15.83,15.83,0,0,1-.5-3.92,17,17,0,0,1,.58-4.72,9.09,9.09,0,0,1,1.76-3.38,9.61,9.61,0,0,1,3-2.34,23.91,23.91,0,0,1,4.43-1.66l5.62-1.51a6,6,0,0,0,3.1-1.58,4.42,4.42,0,0,0,.86-3,5.32,5.32,0,0,0-1-3.49,4.4,4.4,0,0,0-3.56-1.26A4.27,4.27,0,0,0,483,285a5.52,5.52,0,0,0-1.15,3.67v1.08h-8.93V288.8Zm16,9.68a14,14,0,0,1-2.09.68,7.64,7.64,0,0,0-4.32,2.16,6.1,6.1,0,0,0-1.3,4.1,7.87,7.87,0,0,0,.86,3.82,3,3,0,0,0,2.88,1.58,7.26,7.26,0,0,0,2.09-.32,5.82,5.82,0,0,0,2-1,5.51,5.51,0,0,0,1.48-1.87,6.06,6.06,0,0,0,.58-2.74v-7.63A9,9,0,0,1,488.89,298.48Z" transform="translate(-300.35 -253.6)"/><path class="cls-3" d="M524.75,265.18v19.66h12.1V265.18h10.37v51.41H536.84V293.77h-12.1v22.82H514.38V265.18h10.37Z" transform="translate(-300.35 -253.6)"/><path class="cls-3" d="M568.45,312.06a9.41,9.41,0,0,1-4.1,4.1,13,13,0,0,1-5.76,1.22q-4.75,0-7.31-2.48t-2.56-8.32V277.86h9.94v26.71q0,3,1,4.21a4,4,0,0,0,3.24,1.19q5.25,0,5.26-6.41v-25.7h9.94v38.74h-9.5v-4.54h-0.14Z" transform="translate(-300.35 -253.6)"/><path class="cls-3" d="M589.26,265.18v16.27h0.14A11.28,11.28,0,0,1,593,278a9.37,9.37,0,0,1,4.79-1.15q6.12,0,9,4.79t2.88,15.59q0,10.8-2.88,15.48t-9,4.68a10.81,10.81,0,0,1-5.08-1.08,9.94,9.94,0,0,1-3.71-3.82h-0.14v4.1h-9.5V265.18h9.94Zm1,41.58a4.1,4.1,0,0,0,4.28,3.2,4.06,4.06,0,0,0,4.21-3.2,47.27,47.27,0,0,0,0-19.08,4.06,4.06,0,0,0-4.21-3.2,4.1,4.1,0,0,0-4.28,3.2A47.32,47.32,0,0,0,590.23,306.76Z" transform="translate(-300.35 -253.6)"/><path class="cls-3" d="M659.75,313.14a22.87,22.87,0,0,1-14.54,4.68,24.62,24.62,0,0,1-10.33-2.09,22.18,22.18,0,0,1-7.7-5.72,25.29,25.29,0,0,1-4.79-8.57,34.43,34.43,0,0,1,0-21.1,25.31,25.31,0,0,1,4.79-8.57,22.18,22.18,0,0,1,7.7-5.72,26.52,26.52,0,0,1,20.63,0,22.27,22.27,0,0,1,7.67,5.72,25.33,25.33,0,0,1,4.79,8.57,32.94,32.94,0,0,1,1.66,10.55,32.06,32.06,0,0,1-2,11.52,24.45,24.45,0,0,1-5.72,8.86l8,5.76-1.66,2.23Zm-0.36-3.67a23,23,0,0,0,5.26-8.21,29.06,29.06,0,0,0,1.8-10.37,29.86,29.86,0,0,0-1.44-9.36,23,23,0,0,0-4.18-7.67,20.33,20.33,0,0,0-6.66-5.22,19.93,19.93,0,0,0-9-1.94,19.86,19.86,0,0,0-15.7,7.16,23,23,0,0,0-4.18,7.67,31.15,31.15,0,0,0,0,18.72,23,23,0,0,0,4.18,7.67,19.86,19.86,0,0,0,15.7,7.16,19,19,0,0,0,12-3.82l-7.78-5.54,1.66-2.23Z" transform="translate(-300.35 -253.6)"/><path class="cls-3" d="M699.78,316.59H697v-7.92H696.9a11.89,11.89,0,0,1-2.05,3.71,13.63,13.63,0,0,1-6.95,4.5,15.91,15.91,0,0,1-4.25.58,16.82,16.82,0,0,1-5.51-.79,10.78,10.78,0,0,1-3.71-2.09,10.07,10.07,0,0,1-2.27-2.92,13.45,13.45,0,0,1-1.19-3.28,19.15,19.15,0,0,1-.43-3.2q-0.07-1.55-.07-2.7v-22.9h2.74V303a34,34,0,0,0,.22,3.49,10.45,10.45,0,0,0,1.26,4,9.21,9.21,0,0,0,3.13,3.28,10.74,10.74,0,0,0,5.9,1.37,13.11,13.11,0,0,0,5.58-1.15,12.08,12.08,0,0,0,4.21-3.2,14.13,14.13,0,0,0,2.63-4.9,20.57,20.57,0,0,0,.9-6.23v-20h2.74v37Z" transform="translate(-300.35 -253.6)"/><path class="cls-3" d="M703.09,272.6v-7.42h2.74v7.42h-2.74Zm0,44v-37h2.74v37h-2.74Z" transform="translate(-300.35 -253.6)"/><path class="cls-3" d="M737,291a10.72,10.72,0,0,0-1.26-4.32,9.63,9.63,0,0,0-2.7-3.1,12.27,12.27,0,0,0-3.85-1.87,16.61,16.61,0,0,0-4.72-.65,12.93,12.93,0,0,0-6.12,1.4,13.5,13.5,0,0,0-4.46,3.74,17,17,0,0,0-2.74,5.33,20.48,20.48,0,0,0-.94,6.16,26.23,26.23,0,0,0,.86,6.91,15.7,15.7,0,0,0,2.66,5.51,12.38,12.38,0,0,0,4.46,3.63,14.15,14.15,0,0,0,6.26,1.3,12.81,12.81,0,0,0,8.68-3.24,12.31,12.31,0,0,0,2.77-3.64,14.77,14.77,0,0,0,1.44-4.64h2.74a17.37,17.37,0,0,1-1.8,5.9,14.49,14.49,0,0,1-3.46,4.36,15,15,0,0,1-4.75,2.7,18.43,18.43,0,0,1-13.36-.68,14.8,14.8,0,0,1-5.26-4.36,18.5,18.5,0,0,1-3-6.3,28.22,28.22,0,0,1-1-7.45,23.72,23.72,0,0,1,1.12-7.34,17.94,17.94,0,0,1,3.28-6,15.56,15.56,0,0,1,5.33-4.1,16.69,16.69,0,0,1,7.27-1.51,20.36,20.36,0,0,1,5.65.76,14.65,14.65,0,0,1,4.68,2.27,11.84,11.84,0,0,1,3.35,3.85,13.73,13.73,0,0,1,1.58,5.44H737Z" transform="translate(-300.35 -253.6)"/><path class="cls-3" d="M741.25,265.18H744v34.06l22.82-19.66h4l-16.2,13.82,17.35,23.18h-3.74l-15.77-21.1L744,302.62v14h-2.74V265.18Z" transform="translate(-300.35 -253.6)"/><path class="cls-3" d="M817.71,279.87a13.78,13.78,0,0,0-1.4-5.76,12.06,12.06,0,0,0-3.42-4.1,14.91,14.91,0,0,0-5.15-2.48,24.38,24.38,0,0,0-6.52-.83,23.51,23.51,0,0,0-4.64.5A14.71,14.71,0,0,0,792,269a10.46,10.46,0,0,0-3.49,3.38,9.58,9.58,0,0,0-1.37,5.29,8,8,0,0,0,1.51,5,11,11,0,0,0,4,3.13,26,26,0,0,0,5.62,1.91q3.17,0.72,6.41,1.37t6.44,1.55a22.13,22.13,0,0,1,5.62,2.45,12.12,12.12,0,0,1,4,4,11.8,11.8,0,0,1,1.51,6.23,12.44,12.44,0,0,1-1.73,6.77,14.6,14.6,0,0,1-4.36,4.46,18.08,18.08,0,0,1-5.83,2.48,26.75,26.75,0,0,1-6.16.76,35.53,35.53,0,0,1-8.5-1,19,19,0,0,1-6.91-3.17,15.29,15.29,0,0,1-4.64-5.65,18.41,18.41,0,0,1-1.62-8.42h3.17a14.38,14.38,0,0,0,1.22,7.16,12.91,12.91,0,0,0,4,4.79,16.55,16.55,0,0,0,6,2.7,31.08,31.08,0,0,0,7.27.83,23.06,23.06,0,0,0,4.93-.58,15.18,15.18,0,0,0,4.82-1.94,11.94,11.94,0,0,0,3.67-3.6,10,10,0,0,0,1.48-5.62,8.7,8.7,0,0,0-1.51-5.29,11.1,11.1,0,0,0-4-3.31,25.79,25.79,0,0,0-5.62-2q-3.13-.76-6.44-1.4T795,289.81a22,22,0,0,1-5.62-2.34,12,12,0,0,1-4-3.82,10.89,10.89,0,0,1-1.51-6,12.19,12.19,0,0,1,1.55-6.3,12.66,12.66,0,0,1,4-4.25,17.88,17.88,0,0,1,5.58-2.38,25.72,25.72,0,0,1,6.12-.76,30.1,30.1,0,0,1,7.52.9,17.94,17.94,0,0,1,6.12,2.81,14,14,0,0,1,4.21,4.93,17.45,17.45,0,0,1,1.8,7.27h-3.17Z" transform="translate(-300.35 -253.6)"/><path class="cls-3" d="M840.54,282h-8.06v25.85a10,10,0,0,0,.5,3.53,4,4,0,0,0,1.55,2,5.48,5.48,0,0,0,2.52.83,25.72,25.72,0,0,0,3.42.07v2.38a25.64,25.64,0,0,1-4.07,0,8.16,8.16,0,0,1-3.49-1.08,6.32,6.32,0,0,1-2.41-2.7,10.2,10.2,0,0,1-.76-5V282H822.9v-2.38h6.84V268.06h2.74v11.52h8.06V282Z" transform="translate(-300.35 -253.6)"/><path class="cls-3" d="M864.73,309.25h-0.14a11.43,11.43,0,0,1-1.87,3.13,13.28,13.28,0,0,1-3,2.63,14.8,14.8,0,0,1-4,1.8,17.49,17.49,0,0,1-4.9.65q-5.9,0-9.14-2.55T838.45,307a9.24,9.24,0,0,1,4.57-8.53,14,14,0,0,1,4.39-1.69,43.13,43.13,0,0,1,4.64-.72l4.25-.36a25,25,0,0,0,4.64-.68,5.93,5.93,0,0,0,2.56-1.3,3.7,3.7,0,0,0,1.08-2.12,20.29,20.29,0,0,0,.22-3.24,6.84,6.84,0,0,0-.58-2.81,6.32,6.32,0,0,0-1.8-2.3,8.94,8.94,0,0,0-3.17-1.58,16.93,16.93,0,0,0-4.75-.58,12.47,12.47,0,0,0-8,2.45q-3.06,2.45-3.35,7.42h-2.74q0.29-6.12,3.92-9.18t10.33-3.06q6.7,0,9.76,2.63a8.63,8.63,0,0,1,3.06,6.88v21.53c0,0.53,0,1.06,0,1.58a5.25,5.25,0,0,0,.25,1.44,2.15,2.15,0,0,0,.72,1,2.28,2.28,0,0,0,1.44.4,13.2,13.2,0,0,0,2-.22v2.3a8.61,8.61,0,0,1-2.23.29,6.6,6.6,0,0,1-2.63-.43,3.46,3.46,0,0,1-1.48-1.15,4.24,4.24,0,0,1-.68-1.69,11.69,11.69,0,0,1-.18-2.12v-1.94Zm0-13.68a5.19,5.19,0,0,1-3.06,1.66,37.81,37.81,0,0,1-4.57.65l-4.61.43q-2,.22-4,0.61a11.75,11.75,0,0,0-3.64,1.33,7.44,7.44,0,0,0-2.63,2.56,7.86,7.86,0,0,0-1,4.21q0,4.1,2.59,6.08a11.49,11.49,0,0,0,7.13,2,14,14,0,0,0,7.42-1.69,13.1,13.1,0,0,0,4.18-3.89,12,12,0,0,0,1.84-4.25,18.28,18.28,0,0,0,.4-2.77v-6.91Z" transform="translate(-300.35 -253.6)"/><path class="cls-3" d="M873.51,287.79h0.22a9,9,0,0,1,1.84-3.38,12.92,12.92,0,0,1,3.24-2.74,16.05,16.05,0,0,1,4.25-1.76,17.22,17.22,0,0,1,4.86-.54v2.74a13,13,0,0,0-4.93.43,12,12,0,0,0-5.29,3.17,25.44,25.44,0,0,0-1.76,2.09,10.1,10.1,0,0,0-1.26,2.23,14.1,14.1,0,0,0-.79,2.74,23.87,23.87,0,0,0-.36,3.6v20.23h-2.74v-37h2.74v8.21Z" transform="translate(-300.35 -253.6)"/><path class="cls-3" d="M906.27,282h-8.06v25.85a10,10,0,0,0,.5,3.53,4,4,0,0,0,1.55,2,5.48,5.48,0,0,0,2.52.83,25.72,25.72,0,0,0,3.42.07v2.38a25.64,25.64,0,0,1-4.07,0,8.16,8.16,0,0,1-3.49-1.08,6.32,6.32,0,0,1-2.41-2.7,10.2,10.2,0,0,1-.76-5V282h-6.84v-2.38h6.84V268.06h2.74v11.52h8.06V282Z" transform="translate(-300.35 -253.6)"/><polygon class="cls-4" points="44.72 45.93 16.75 29.36 16.75 29.56 7.5 34.9 34.52 51.83 44.72 45.93"/><path class="cls-4" d="M350.73,300.66V325l20-11.52a1.36,1.36,0,0,0,.52-1V288.82Z" transform="translate(-300.35 -253.6)"/><path class="cls-4" d="M317.1,298.78v7.85a1.37,1.37,0,0,0,.52,1l29.33,17.34V302.85l-12.16,7Z" transform="translate(-300.35 -253.6)"/><path class="cls-4" d="M336.39,271.84l-15.5,8.93,3.75,2.23,13.31-7.69A15.46,15.46,0,0,0,336.39,271.84Z" transform="translate(-300.35 -253.6)"/><path class="cls-4" d="M367.51,286.59l-4.1-2.43a4.26,4.26,0,0,1-1.24,1.91L361,287.15l2.71,1.63Z" transform="translate(-300.35 -253.6)"/><path class="cls-4" d="M359.38,282.6h-4.62a9.85,9.85,0,0,0-.16-1.43C351.21,262.56,333,263,333,263s11.08,8.73,11.08,18.13c0,0.52,0,1,.08,1.43H338.7c-0.68,0-.8.36-0.32,0.8l9.89,9a1.39,1.39,0,0,0,1.79,0l9.65-9C360.18,283,360.06,282.6,359.38,282.6Z" transform="translate(-300.35 -253.6)"/></svg>