<svg id="Layer_1" data-name="Layer 1" xmlns="http://www.w3.org/2000/svg" viewBox="0 0 82.78 82.78"><defs><style>.cls-1{fill:#2a2d2b;}.cls-2{fill:none;stroke:#fff;stroke-miterlimit:10;stroke-width:1.68px;}.cls-3{fill:#fff;}</style></defs><title>hub-icon</title><g id="_Group_" data-name=" Group "><circle class="cls-1" cx="41.38" cy="41.39" r="37.39"/><path class="cls-1" d="M290.1,251.14a41.39,41.39,0,1,1,41.39-41.39A41.39,41.39,0,0,1,290.1,251.14Zm0-74.79a33.39,33.39,0,1,0,33.39,33.4A33.39,33.39,0,0,0,290.1,176.35Z" transform="translate(-248.71 -168.36)"/></g><path class="cls-2" d="M292.28,209.75" transform="translate(-248.71 -168.36)"/><polygon class="cls-3" points="44.71 45.92 16.74 29.35 16.74 29.55 7.49 34.89 34.51 51.82 44.71 45.92"/><path class="cls-3" d="M299.08,215.41v24.34l20-11.52a1.36,1.36,0,0,0,.52-1V203.57Z" transform="translate(-248.71 -168.36)"/><path class="cls-3" d="M265.45,213.53v7.85a1.37,1.37,0,0,0,.52,1l29.33,17.34V217.6l-12.16,7Z" transform="translate(-248.71 -168.36)"/><path class="cls-3" d="M284.74,186.59l-15.5,8.93,3.75,2.23,13.31-7.69A15.46,15.46,0,0,0,284.74,186.59Z" transform="translate(-248.71 -168.36)"/><path class="cls-3" d="M315.86,201.34l-4.1-2.43a4.26,4.26,0,0,1-1.24,1.91l-1.17,1.08,2.71,1.63Z" transform="translate(-248.71 -168.36)"/><path class="cls-3" d="M307.73,197.35h-4.62a9.85,9.85,0,0,0-.16-1.43c-3.39-18.61-21.6-18.17-21.6-18.17s11.08,8.73,11.08,18.13a8.05,8.05,0,0,0,.08,1.43H287c-.68,0-.8.36-.32.8l9.89,9a1.39,1.39,0,0,0,1.79,0l9.65-9C308.53,197.75,308.41,197.35,307.73,197.35Z" transform="translate(-248.71 -168.36)"/></svg>