<?xml version="1.0" encoding="utf-8"?>
<!-- Generator: Adobe Illustrator 20.0.0, SVG Export Plug-In . SVG Version: 6.00 Build 0)  -->
<svg version="1.1" id="Layer_2" xmlns="http://www.w3.org/2000/svg" xmlns:xlink="http://www.w3.org/1999/xlink" x="0px" y="0px"
	 viewBox="0 0 64.8 64.7" enable-background="new 0 0 64.8 64.7" xml:space="preserve">
<path fill="#5B5C5D" d="M32.6,64.4C14.8,64.4,0.4,50,0.4,32.3S14.8,0.2,32.6,0.2s32.1,14.4,32.1,32.1S50.3,64.4,32.6,64.4z
	 M32.6,5.3c-14.9,0-27,12.1-27,27s12.1,27,27,27c14.9,0,27-12.1,27-27S47.4,5.3,32.6,5.3z"/>
<g>
	<path fill="#5D5E5E" d="M20.8,19.6h11.2v6.5h-1.1v12.7h3.3V26.1h-1.1v-6.5h11.3v6.8h-2.1v14.8l-4.8,4.6h-9.9L23,41.2V26.4h-2.1
		V19.6z M23.3,21.7v2.4h2.1v16l3.2,3.3h7.9l3.4-3.2V24.2H42v-2.4h-6.6v2.4h1.3v15.5l-1.6,1.5h-4.9l-1.6-1.5V24.2h1.3v-2.4H23.3z"/>
</g>
<g id="Layer_4">
</g>
</svg>
