<?xml version="1.0" encoding="utf-8"?>
<!-- Generator: Adobe Illustrator 20.0.0, SVG Export Plug-In . SVG Version: 6.00 Build 0)  -->
<svg version="1.1" id="Layer_2" xmlns="http://www.w3.org/2000/svg" xmlns:xlink="http://www.w3.org/1999/xlink" x="0px" y="0px"
	 viewBox="0 0 64.8 64.7" enable-background="new 0 0 64.8 64.7" xml:space="preserve">
<path fill="#5B5C5D" d="M32.6,64.4C14.8,64.4,0.4,50,0.4,32.3S14.8,0.2,32.6,0.2s32.1,14.4,32.1,32.1S50.3,64.4,32.6,64.4z
	 M32.6,5.3c-14.9,0-27,12.1-27,27s12.1,27,27,27c14.9,0,27-12.1,27-27S47.4,5.3,32.6,5.3z"/>
<g id="Layer_3">
	<g id="download_x5F_alt_1_">
		<path fill="#5D5E5E" d="M41.1,38.2v1.8H33l7.1-7c0.2-0.2,0.1-0.3-0.2-0.3h-4.8V19.2c0-0.2,0-0.2-0.2-0.2H30c-0.2,0,0,0,0,0.2v13.6
			h-5c-0.2,0-0.3,0.2-0.2,0.3l7.1,7h-8.9v-1.8h-2v4.8c0,0.4,0.3,0.7,0.8,0.7h21.1c0.5,0,1.1-0.2,1.1-0.7v-4.8H41.1z"/>
	</g>
</g>
<g id="Layer_4">
</g>
</svg>
