<?xml version="1.0" encoding="utf-8"?>
<!-- Generator: Adobe Illustrator 21.1.0, SVG Export Plug-In . SVG Version: 6.00 Build 0)  -->
<svg version="1.1" id="Layer_1" xmlns="http://www.w3.org/2000/svg" xmlns:xlink="http://www.w3.org/1999/xlink" x="0px" y="0px"
	 width="100px" height="100px" viewBox="0 0 100 100" style="enable-background:new 0 0 100 100;" xml:space="preserve">
<style type="text/css">
	.st0{fill:#FFFFFF;}
</style>
<g id="Disk_On">
	<g>
		<path class="st0" d="M50,96.6C24.3,96.6,3.4,75.7,3.4,50S24.3,3.4,50,3.4S96.6,24.3,96.6,50S75.7,96.6,50,96.6z M50,7.4
			C26.5,7.4,7.4,26.5,7.4,50c0,23.5,19.1,42.6,42.6,42.6c23.5,0,42.6-19.1,42.6-42.6C92.6,26.5,73.5,7.4,50,7.4z"/>
	</g>
</g>
<g id="Icon_Active_1_">
	<g>
		<g>
			<path class="st0" d="M57.9,41.2c-0.7,1.3-2.3,1.6-3.6,0.9c-1.3-0.7-1.6-2.3-0.9-3.6c0.7-1.3,2.3-1.6,3.6-0.9
				C58.3,38.5,58.7,40,57.9,41.2L57.9,41.2z M57,62c-1.3,0.7-2.9,0.3-3.6-0.9c-0.7-1.3-0.3-2.9,0.9-3.6c1.3-0.7,2.9-0.3,3.6,0.9
				C58.7,59.7,58.3,61.3,57,62L57,62z M58.7,65c2.9-1.6,3.8-5.3,2.2-8.2c-1.2-2.1-3.5-3.1-5.7-3L53,49.9l2.3-3.9
				c2.2,0.1,4.5-0.9,5.7-3c1.6-2.9,0.7-6.6-2.2-8.2c-2.9-1.6-6.5-0.7-8.2,2.2c-1.2,2.1-1,4.5,0.2,6.3l-2.3,3.9H44
				c-1-2-3-3.3-5.4-3.3c-3.3,0-6,2.7-6,6s2.7,6,6,6c2.3,0,4.4-1.4,5.3-3.3h4.5l2.3,3.9c-1.3,1.8-1.4,4.3-0.2,6.3
				C52.2,65.6,55.8,66.6,58.7,65L58.7,65z M38.5,52.4c-1.5,0-2.7-1.2-2.7-2.5s1.2-2.7,2.7-2.7s2.7,1.2,2.7,2.7S40,52.4,38.5,52.4z"
				/>
		</g>
		<g>
			<path class="st0" d="M30.6,61.1l5.7,9.9c0.5,0.8,1.4,1.3,2.3,1.3H50c1,0,2-0.6,2.3-1.5l2.1-3.7c-1.7-0.2-3.3-1.2-4.5-2.5
				l-1.5,2.5H40l-4.3-7.3l1.5-2.5c-1.8-0.3-3.3-1.3-4.5-2.7l-2.2,3.8C30.1,59.3,30.1,60.3,30.6,61.1L30.6,61.1z M30.6,38.7l5.7-9.9
				c0.5-0.8,1.4-1.3,2.3-1.3H50c1,0,2,0.6,2.3,1.5l2.1,3.7c-1.7,0.2-3.3,1.2-4.5,2.5l-1.4-2.5H40L35.8,40l1.5,2.5
				c-1.8,0.3-3.3,1.3-4.5,2.5l-2.2-3.8C30.1,40.4,30.1,39.5,30.6,38.7L30.6,38.7z M69.3,38.7l5.8,9.9c0.5,0.8,0.5,1.8,0,2.7
				l-5.8,9.9c-0.5,0.9-1.5,1.4-2.4,1.3h-4.3c0.6-1.6,0.7-3.5,0-5.2h2.9l4.3-7.4l-4.3-7.3h-2.9c0.7-1.7,0.6-3.6,0-5.2h4.5
				C68.1,37.3,68.9,37.9,69.3,38.7z"/>
		</g>
	</g>
</g>
</svg>
