<svg id="Layer_1" data-name="Layer 1" xmlns="http://www.w3.org/2000/svg" viewBox="0 0 332.61 342"><defs><style>.cls-1{fill:#fff;}</style></defs><title>marklogic avatar white knockout</title><path class="cls-1" d="M178.88,344.91a28.92,28.92,0,0,0,28.88-29V169.53a28.94,28.94,0,0,0-28.88-29H32a28.93,28.93,0,0,0-28.87,29V316a28.91,28.91,0,0,0,28.87,29Z" transform="translate(-3.09 -2.9)"/><path class="cls-1" d="M312.74,120.86a23,23,0,0,0,23-22.92V25.8a23,23,0,0,0-23-22.9H240.81a23.06,23.06,0,0,0-23,22.9V97.94a23,23,0,0,0,23,22.92Z" transform="translate(-3.09 -2.9)"/></svg>